<svg id="Layer_1" data-name="Layer 1" xmlns="http://www.w3.org/2000/svg" viewBox="0 0 600 300"><defs><style>.cls-1{fill:none;}</style></defs><title>Artboard 2</title><path class="cls-1" d="M519.75,126.41a57.52,57.52,0,1,0,57.52,57.52A57.58,57.58,0,0,0,519.75,126.41Z"/><path class="cls-1" d="M386.16,126.41a57.56,57.56,0,0,0-56.7,48.24h113.4A57.56,57.56,0,0,0,386.16,126.41Z"/><path d="M252.57,107.86a75.87,75.87,0,0,0-57.52,26.43V117.13H176.49v66.8a57.52,57.52,0,1,1-115,0V126.41H119V107.86H61.46V40H42.91v67.86H4.18v18.55H42.91v57.52a76,76,0,0,0,133.58,49.64V260h18.56V183.93a57.53,57.53,0,0,1,105.31-32l15.4-10.34A76,76,0,0,0,252.57,107.86Z"/><path d="M577.27,40v94.29A75.94,75.94,0,0,0,453,147.56a76,76,0,1,0-6,82.07l-14.83-11.15A57.47,57.47,0,0,1,329.46,193.2H444.3a75.94,75.94,0,0,0,133,40.37V260h18.55V40ZM329.46,174.65a57.44,57.44,0,0,1,113.4,0Zm190.29,66.8a57.52,57.52,0,1,1,57.52-57.52A57.59,57.59,0,0,1,519.75,241.45Z"/></svg>