<svg id="Layer_1" data-name="Layer 1" xmlns="http://www.w3.org/2000/svg" viewBox="0 0 600 300"><defs><style>.cls-1{fill:none;}.cls-2{fill:#fff;}</style></defs><title>Artboard 1 copy</title><path class="cls-1" d="M485.71,101.85a48.61,48.61,0,1,0,48.61,48.61A48.67,48.67,0,0,0,485.71,101.85Z"/><path class="cls-1" d="M372.81,101.85a48.63,48.63,0,0,0-47.91,40.77h95.83A48.65,48.65,0,0,0,372.81,101.85Z"/><path class="cls-2" d="M259.91,86.17a64.1,64.1,0,0,0-48.6,22.34V94H195.62v56.45a48.61,48.61,0,1,1-97.21,0V101.85H147V86.17H98.41V28.82H82.73V86.17H50v15.68H82.73v48.61a64.21,64.21,0,0,0,112.89,41.95v22.34h15.69V150.46a48.61,48.61,0,0,1,89-27.07l13-8.74A64.26,64.26,0,0,0,259.91,86.17Z"/><path class="cls-2" d="M534.32,28.82v79.69a64.17,64.17,0,0,0-105.06,11.22,64.27,64.27,0,1,0-5.05,69.35l-12.53-9.42A48.57,48.57,0,0,1,324.9,158.3H422a64.17,64.17,0,0,0,112.37,34.11v22.34H550V28.82ZM324.9,142.62a48.54,48.54,0,0,1,95.83,0Zm160.81,56.45a48.61,48.61,0,1,1,48.61-48.61A48.67,48.67,0,0,1,485.71,199.07Z"/><path class="cls-2" d="M96.94,241.85l13.35,28.61H107.2L102.7,261H90.38l-4.46,9.42H82.73l13.51-28.61Zm-.36,6.08-4.9,10.35h9.78Z"/><path class="cls-2" d="M114.88,241.85h5.7a34.45,34.45,0,0,1,6.45.39,7.4,7.4,0,0,1,4.15,2.5,7.15,7.15,0,0,1,1.59,4.72,7.65,7.65,0,0,1-1.1,4.11,6.9,6.9,0,0,1-3.14,2.68,14.45,14.45,0,0,1-5.64.92l10.29,13.29h-3.54l-10.29-13.29h-1.61v13.29h-2.86Zm2.86,2.8v9.72l4.93,0a12.36,12.36,0,0,0,4.23-.54,4.34,4.34,0,0,0,2.14-1.74,4.8,4.8,0,0,0,.77-2.68,4.6,4.6,0,0,0-.78-2.61,4.23,4.23,0,0,0-2-1.68,12.37,12.37,0,0,0-4.21-.51Z"/><path class="cls-2" d="M165.54,247.16l-2.26,1.73a12.38,12.38,0,0,0-4.48-3.69,13.23,13.23,0,0,0-5.75-1.25,12.75,12.75,0,0,0-6.34,1.64,11.78,11.78,0,0,0-4.52,4.42,12.17,12.17,0,0,0-1.6,6.23,11.69,11.69,0,0,0,3.58,8.73,12.45,12.45,0,0,0,9.06,3.5,12.75,12.75,0,0,0,10.05-4.7l2.26,1.71a14.51,14.51,0,0,1-5.34,4.21,16.82,16.82,0,0,1-7.15,1.49q-7.5,0-11.84-5A15,15,0,0,1,137.57,256a14.19,14.19,0,0,1,4.4-10.57,15.2,15.2,0,0,1,11-4.29,16.33,16.33,0,0,1,7.24,1.58A14.11,14.11,0,0,1,165.54,247.16Z"/><path class="cls-2" d="M171.24,241.85h2.85v12h14.57v-12h2.86v28.61h-2.86V256.65H174.09v13.81h-2.85Z"/><path class="cls-2" d="M198.07,241.85h2.86v28.61h-2.86Z"/><path class="cls-2" d="M204.65,244.65v-2.8h15.67v2.8h-6.38v25.81H211V244.65Z"/><path class="cls-2" d="M224.46,241.85h16.4v2.8H227.32v9h13.42v2.8H227.32v11.25h13.42v2.8H224.46Z"/><path class="cls-2" d="M272.44,247.16l-2.26,1.73a12.29,12.29,0,0,0-4.48-3.69A13.2,13.2,0,0,0,260,244a12.78,12.78,0,0,0-6.34,1.64,11.85,11.85,0,0,0-4.52,4.42,12.17,12.17,0,0,0-1.6,6.23,11.66,11.66,0,0,0,3.59,8.73,12.45,12.45,0,0,0,9,3.5,12.72,12.72,0,0,0,10.05-4.7l2.26,1.71a14.51,14.51,0,0,1-5.34,4.21,16.75,16.75,0,0,1-7.15,1.49q-7.5,0-11.84-5A15.1,15.1,0,0,1,244.47,256a14.16,14.16,0,0,1,4.41-10.57,15.18,15.18,0,0,1,11-4.29,16.26,16.26,0,0,1,7.23,1.58A14.11,14.11,0,0,1,272.44,247.16Z"/><path class="cls-2" d="M275.34,244.65v-2.8H291v2.8h-6.38v25.81h-2.91V244.65Z"/><path class="cls-2" d="M295.23,241.85h2.86v17.27a34.76,34.76,0,0,0,.12,3.83,6.3,6.3,0,0,0,1,2.83,5.85,5.85,0,0,0,2.39,1.9,7.41,7.41,0,0,0,3.25.77,6.38,6.38,0,0,0,2.72-.6,6,6,0,0,0,2.18-1.67,6.78,6.78,0,0,0,1.29-2.59,21.74,21.74,0,0,0,.29-4.47V241.85h2.86v17.27a21,21,0,0,1-.75,6.19,8.37,8.37,0,0,1-3,4.11,8.53,8.53,0,0,1-5.43,1.76,10.33,10.33,0,0,1-5.93-1.66,8,8,0,0,1-3.31-4.37,23.19,23.19,0,0,1-.53-6Z"/><path class="cls-2" d="M321.37,241.85h5.7a34.51,34.51,0,0,1,6.46.39,7.34,7.34,0,0,1,4.14,2.5,7.15,7.15,0,0,1,1.59,4.72,7.57,7.57,0,0,1-1.1,4.11,6.87,6.87,0,0,1-3.13,2.68,14.52,14.52,0,0,1-5.64.92l10.28,13.29h-3.53l-10.29-13.29h-1.62v13.29h-2.86Zm2.86,2.8v9.72l4.93,0a12.38,12.38,0,0,0,4.24-.54,4.38,4.38,0,0,0,2.14-1.74,4.88,4.88,0,0,0,.77-2.68,4.6,4.6,0,0,0-.78-2.61,4.25,4.25,0,0,0-2-1.68,12.27,12.27,0,0,0-4.2-.51Z"/><path class="cls-2" d="M345.41,241.85H361.8v2.8H348.27v9h13.42v2.8H348.27v11.25h13.42v2.8H345.41Z"/><path class="cls-2" d="M385,254.82v-8.44h2.67v8.44h8.5v2.66h-8.5v8.44H385v-8.44h-8.5v-2.66Z"/><path class="cls-2" d="M412.93,270.46V241.85h5.93q6.42,0,9.32,1a12.4,12.4,0,0,1,6.5,5.06,15.28,15.28,0,0,1,2.35,8.57,15,15,0,0,1-1.86,7.57,12,12,0,0,1-4.82,4.82,18.15,18.15,0,0,1-8.32,1.56Zm2.74-2.71H419c4,0,6.7-.24,8.23-.74a9.51,9.51,0,0,0,5.07-3.77,11.69,11.69,0,0,0,1.85-6.68,12.26,12.26,0,0,0-2-7.07,10.13,10.13,0,0,0-5.58-4,34,34,0,0,0-8.85-.81h-2Z"/><path class="cls-2" d="M442.59,241.85H459v2.8H445.45v9h13.42v2.8H445.45v11.25h13.42v2.8H442.59Z"/><path class="cls-2" d="M461,265.13l2.43-1.46c1.71,3.15,3.68,4.72,5.93,4.72a5.63,5.63,0,0,0,2.7-.67,4.71,4.71,0,0,0,2.59-4.19,4.83,4.83,0,0,0-1-2.82,23.54,23.54,0,0,0-4.9-4.59,25,25,0,0,1-4.46-3.9,7.16,7.16,0,0,1-1.51-4.38,6.56,6.56,0,0,1,.89-3.4,6.41,6.41,0,0,1,2.52-2.43,7.25,7.25,0,0,1,3.53-.88,7.48,7.48,0,0,1,3.78,1,13,13,0,0,1,3.73,3.69l-2.34,1.76a11.2,11.2,0,0,0-2.75-2.81,4.71,4.71,0,0,0-2.48-.69,4,4,0,0,0-2.83,1,3.46,3.46,0,0,0-1.1,2.59,4.4,4.4,0,0,0,.39,1.81,6.73,6.73,0,0,0,1.42,1.91q.57.54,3.69,2.86a20.54,20.54,0,0,1,5.1,4.88,7.83,7.83,0,0,1,1.38,4.29,7.31,7.31,0,0,1-2.36,5.41,8,8,0,0,1-5.75,2.3,8.51,8.51,0,0,1-4.73-1.39A12.82,12.82,0,0,1,461,265.13Z"/><path class="cls-2" d="M483.35,241.85h2.86v28.61h-2.86Z"/><path class="cls-2" d="M520.36,246.65l-2.22,2.1a16.84,16.84,0,0,0-5.24-3.57,14.09,14.09,0,0,0-5.55-1.21,13.28,13.28,0,0,0-6.41,1.65,12,12,0,0,0-4.71,4.48,11.54,11.54,0,0,0-1.68,6,11.84,11.84,0,0,0,1.73,6.14,12.32,12.32,0,0,0,4.79,4.57,13.74,13.74,0,0,0,6.69,1.66,11.45,11.45,0,0,0,7.47-2.49,9.81,9.81,0,0,0,3.61-6.45h-9.12v-2.77h12.33q0,6.64-3.94,10.54t-10.43,3.9q-7.94,0-12.56-5.41a14.36,14.36,0,0,1-3.56-9.63,14.74,14.74,0,0,1,2-7.56,14.53,14.53,0,0,1,5.6-5.48,16.41,16.41,0,0,1,8.05-2,18,18,0,0,1,6.85,1.31A20.59,20.59,0,0,1,520.36,246.65Z"/><path class="cls-2" d="M527.52,270.46V241.85h.62l19,21.93V241.85H550v28.61h-.64l-18.88-21.67v21.67Z"/></svg>